<svg width="20" height="21" viewBox="0 0 20 21" fill="none" xmlns="http://www.w3.org/2000/svg">
<g id="search_icon">
<path id="Vector" fill-rule="evenodd" clip-rule="evenodd" d="M8 4.33329C6.93913 4.33329 5.92172 4.75471 5.17157 5.50486C4.42143 6.255 4 7.27242 4 8.33329C4 9.39415 4.42143 10.4116 5.17157 11.1617C5.92172 11.9119 6.93913 12.3333 8 12.3333C9.06087 12.3333 10.0783 11.9119 10.8284 11.1617C11.5786 10.4116 12 9.39415 12 8.33329C12 7.27242 11.5786 6.255 10.8284 5.50486C10.0783 4.75471 9.06087 4.33329 8 4.33329ZM2 8.33329C1.99988 7.38899 2.22264 6.458 2.65017 5.61603C3.0777 4.77406 3.69792 4.04488 4.4604 3.48781C5.22287 2.93074 6.10606 2.5615 7.03815 2.41012C7.97023 2.25874 8.92488 2.3295 9.82446 2.61664C10.724 2.90378 11.5432 3.39919 12.2152 4.06258C12.8872 4.72598 13.3931 5.53862 13.6919 6.43442C13.9906 7.33022 14.0737 8.28388 13.9343 9.21784C13.795 10.1518 13.4372 11.0397 12.89 11.8093L17.707 16.6263C17.8892 16.8149 17.99 17.0675 17.9877 17.3297C17.9854 17.5919 17.8802 17.8427 17.6948 18.0281C17.5094 18.2135 17.2586 18.3187 16.9964 18.321C16.7342 18.3232 16.4816 18.2224 16.293 18.0403L11.477 13.2243C10.5794 13.8626 9.52335 14.2414 8.42468 14.3194C7.326 14.3974 6.22707 14.1714 5.2483 13.6663C4.26953 13.1611 3.44869 12.3963 2.87572 11.4556C2.30276 10.515 1.99979 9.43472 2 8.33329Z" fill="black"/>
</g>
</svg>
