<svg width="199" height="74" viewBox="0 0 199 74" fill="none" xmlns="http://www.w3.org/2000/svg">
<path id="search_box" d="M0.5 37.259C0.5 20.0735 10.8001 3.66012 27.6556 1.3266C32.5506 0.648931 37.1007 0.589939 40.4343 1.65426C42.093 2.18384 43.4235 2.983 44.3533 4.09681C45.2787 5.20531 45.8386 6.66281 45.8963 8.57057C45.9124 9.10349 46.0419 9.57197 46.3059 9.95905C46.5709 10.3477 46.9454 10.616 47.386 10.7908C48.2408 11.1299 49.3983 11.1377 50.7132 10.987C52.5906 10.7717 54.9881 10.2027 57.6671 9.56703C58.7546 9.30896 59.8885 9.03988 61.0528 8.77899C65.1177 7.86814 69.6123 7.04033 74.0186 7.04102C78.4229 7.04171 82.7058 7.87035 86.3716 10.2427C88.3539 11.5255 90.9814 12.2132 94.003 12.4909C97.0301 12.7692 100.494 12.6395 104.18 12.2551C111.55 11.4864 119.88 9.69098 127.505 8.03999L127.709 7.99578C135.28 6.35654 142.107 4.87819 146.667 4.66326C147.812 4.60928 148.796 4.63625 149.602 4.75519C150.413 4.87495 151.006 5.08261 151.4 5.36072C151.775 5.62558 151.981 5.96029 152.032 6.40447C152.086 6.87351 151.97 7.50783 151.589 8.34955C150.363 11.0637 149.988 13.2497 150.395 14.9662C150.811 16.7176 152.016 17.883 153.705 18.5855C155.375 19.28 157.544 19.5367 159.991 19.4958C162.445 19.4547 165.218 19.113 168.12 18.5799C183.126 15.8232 198.5 25.8998 198.5 40.9956C198.5 54.0968 186.787 64.1849 173.747 62.6941C157.931 60.886 136.933 59.0105 117.462 58.9461C107.727 58.914 98.3629 59.3345 90.2146 60.4455C82.0759 61.5552 75.1063 63.3591 70.1879 66.1195C57.3795 73.3079 41.7978 73.9858 28.5466 72.5555C11.3315 70.6973 0.5 54.7229 0.5 37.259Z" stroke="black"/>
</svg>
