<?xml version="1.0" standalone="no"?>
<!DOCTYPE svg PUBLIC "-//W3C//DTD SVG 20010904//EN"
 "http://www.w3.org/TR/2001/REC-SVG-20010904/DTD/svg10.dtd">
<svg version="1.0" xmlns="http://www.w3.org/2000/svg"
 width="1024.000000pt" height="1024.000000pt" viewBox="0 0 1024.000000 1024.000000"
 preserveAspectRatio="xMidYMid meet">
<metadata>
Created by potrace 1.14, written by Peter Selinger 2001-2017
</metadata>
<g transform="translate(0.000000,1024.000000) scale(0.100000,-0.100000)"
fill="#000000" stroke="none">
<path d="M5740 9047 c-99 -30 -191 -87 -268 -167 -85 -89 -96 -102 -99 -119
-1 -8 -6 -17 -11 -20 -16 -10 -62 -98 -55 -105 4 -3 2 -6 -4 -6 -5 0 -15 -11
-21 -25 -7 -16 -17 -23 -26 -19 -9 3 -14 9 -13 14 2 8 -90 98 -143 140 -34 27
-145 87 -195 106 -36 14 -78 24 -125 29 -19 2 -35 4 -35 5 0 1 -12 3 -27 4
-16 1 -28 -2 -28 -6 0 -4 -11 -3 -24 2 -15 5 -27 5 -34 -2 -6 -6 -12 -6 -16 1
-4 6 -18 5 -41 -5 -19 -8 -35 -11 -35 -8 0 4 -6 1 -13 -5 -8 -6 -16 -8 -19 -5
-6 5 -66 -19 -142 -57 -53 -28 -165 -112 -160 -121 3 -5 -2 -8 -10 -8 -9 0
-16 -3 -16 -7 0 -5 -19 -29 -43 -54 -51 -55 -87 -104 -87 -119 0 -5 -4 -10 -8
-10 -5 0 -31 -43 -57 -96 -27 -54 -51 -92 -53 -85 -2 6 -10 11 -17 11 -7 0
-15 4 -17 8 -5 13 -107 72 -123 72 -8 0 -15 5 -15 10 0 6 -8 10 -18 10 -10 0
-22 4 -28 8 -25 22 -209 63 -279 63 -72 0 -130 -4 -140 -10 -11 -6 -24 -9 -71
-14 -17 -2 -35 -7 -41 -10 -5 -3 -22 -8 -38 -11 -16 -3 -31 -9 -34 -13 -3 -4
-15 -9 -26 -11 -11 -2 -24 -9 -30 -15 -5 -7 -14 -12 -20 -12 -9 0 -62 -28
-110 -58 -11 -6 -24 -18 -28 -24 -4 -7 -12 -13 -18 -13 -5 0 -21 -10 -34 -22
-13 -13 -38 -37 -57 -53 -18 -17 -53 -55 -78 -84 -25 -29 -53 -62 -62 -74 -10
-11 -18 -26 -18 -34 0 -7 -4 -13 -9 -13 -11 0 -78 -115 -120 -205 -18 -38 -37
-78 -42 -88 -5 -10 -7 -22 -4 -27 3 -4 1 -10 -5 -12 -5 -1 -11 -13 -13 -25 -1
-11 -9 -28 -16 -37 -7 -8 -10 -20 -6 -26 4 -6 2 -16 -3 -23 -5 -7 -12 -23 -15
-37 -3 -14 -8 -36 -11 -50 -21 -93 -21 -92 -30 -170 -3 -25 -8 -61 -11 -80 -4
-19 -7 -116 -8 -216 -1 -176 -2 -181 -22 -180 -11 1 -29 -4 -40 -11 -11 -7
-29 -13 -41 -13 -12 0 -24 -3 -26 -7 -1 -5 -23 -18 -48 -30 -25 -12 -58 -32
-75 -45 -45 -35 -129 -118 -120 -118 5 0 -3 -10 -17 -22 -26 -24 -109 -156
-107 -172 0 -5 -3 -12 -8 -15 -4 -3 -14 -24 -22 -46 -8 -22 -18 -51 -24 -65
-6 -14 -9 -31 -8 -37 1 -7 -3 -13 -9 -13 -6 0 -9 -4 -6 -9 4 -5 2 -21 -4 -35
-5 -14 -12 -46 -15 -72 -3 -25 -8 -50 -11 -55 -2 -5 -5 -77 -6 -160 0 -117 3
-153 13 -160 7 -4 16 -4 19 0 3 4 1532 7 3398 7 3385 -1 3392 -1 3393 19 3 58
-2 194 -7 220 -4 17 -8 46 -9 65 -2 32 -10 84 -22 135 -3 11 -6 31 -7 45 0 14
-5 28 -10 31 -5 4 -9 15 -10 25 -6 54 -70 225 -120 321 -24 45 -30 66 -23 78
5 9 10 26 12 38 5 38 16 90 20 97 4 6 11 61 21 160 12 116 1 324 -18 347 -6 7
-6 13 -1 13 5 0 9 9 9 20 0 11 -4 20 -8 20 -4 0 -8 14 -8 31 0 17 -4 38 -9 48
-6 10 -12 31 -15 47 -2 16 -5 30 -6 32 -2 1 -3 5 -4 10 -6 26 -30 89 -39 100
-5 6 -6 12 -2 12 3 0 -2 15 -13 33 -12 17 -21 37 -21 42 -1 6 -8 18 -16 28 -8
9 -12 17 -10 17 3 0 -10 25 -30 55 -19 31 -35 57 -35 60 0 7 -25 36 -94 111
-61 67 -189 167 -200 157 -3 -4 -6 -1 -6 5 0 7 -8 12 -18 12 -23 0 -85 57 -77
70 4 6 1 18 -7 27 -7 9 -11 18 -10 20 2 2 0 22 -4 46 -4 23 -8 45 -8 49 -1 3
-4 10 -8 14 -5 4 -8 16 -8 26 0 10 -4 26 -9 36 -12 24 -54 116 -56 122 -11 35
-98 169 -138 212 -14 15 -22 29 -19 32 3 3 1 6 -4 6 -5 0 -34 23 -64 50 -30
28 -60 50 -67 50 -7 0 -13 4 -13 8 0 15 -178 97 -188 88 -2 -3 -16 1 -31 8
-30 15 -178 19 -219 6 -15 -5 -40 -11 -57 -14 -45 -8 -105 -30 -105 -38 0 -5
-9 -8 -20 -8 -11 0 -23 -7 -26 -15 -4 -8 -10 -13 -14 -10 -4 3 -13 -2 -20 -10
-7 -8 -16 -15 -21 -15 -20 0 -159 -136 -197 -193 -28 -41 -24 -42 -62 13 -76
112 -177 202 -275 244 -57 25 -70 30 -85 32 -8 1 -28 7 -43 13 -47 18 -174 12
-257 -12z"/>
<path d="M2066 5332 c-102 -44 -141 -70 -172 -112 -19 -25 -38 -50 -43 -56
-14 -16 -42 -84 -47 -114 -3 -13 -9 -27 -14 -30 -4 -3 -11 -43 -15 -90 -4 -46
-11 -94 -15 -105 -4 -12 -4 -28 0 -36 4 -7 11 -49 15 -93 3 -43 13 -89 21
-101 8 -12 11 -24 8 -28 -3 -3 1 -18 9 -34 8 -15 21 -41 28 -58 18 -37 116
-136 155 -154 64 -30 73 -33 110 -37 69 -8 108 -7 159 0 49 7 65 12 123 38 37
17 139 123 156 161 31 74 39 95 53 147 21 73 24 282 6 334 -7 21 -13 49 -13
61 0 12 -7 28 -15 35 -8 7 -12 16 -9 21 3 5 -4 25 -16 44 -12 19 -19 35 -15
35 14 0 -119 130 -139 136 -12 4 -23 10 -26 15 -3 4 -18 10 -33 13 -14 2 -32
8 -39 12 -22 14 -198 10 -232 -4z m194 -112 c0 -5 9 -10 20 -10 10 0 24 -8 29
-17 6 -10 11 -14 11 -9 0 5 11 -3 25 -19 28 -29 29 -26 -22 -85 -68 -78 -104
-123 -120 -150 -9 -16 -23 -30 -30 -30 -7 0 -13 -4 -13 -8 0 -8 -31 -49 -66
-88 -11 -13 -29 -35 -40 -50 -10 -14 -36 -45 -56 -68 -21 -22 -38 -44 -38 -48
0 -12 -30 -9 -31 2 -2 11 -5 25 -9 38 -1 4 -2 10 -1 15 0 4 -2 7 -7 7 -12 0
-6 212 7 243 6 16 11 39 11 51 0 13 7 29 15 36 8 7 12 16 10 21 -10 15 59 107
98 131 20 12 40 22 43 20 2 -1 12 4 20 13 18 17 144 22 144 5z m203 -256 c11
-57 4 -298 -10 -324 -7 -14 -13 -31 -13 -38 0 -13 -24 -62 -43 -87 -4 -5 -16
-21 -26 -35 -32 -43 -110 -79 -172 -80 -66 -2 -100 5 -111 22 -4 7 -8 9 -8 4
0 -4 -14 5 -30 21 -28 27 -30 33 -19 57 7 14 15 26 19 26 4 0 26 24 48 53 22
28 49 62 61 74 12 12 21 25 21 29 0 4 8 14 18 23 9 9 35 39 57 66 22 28 52 64
67 80 15 17 28 33 28 37 0 3 16 23 35 42 19 20 35 41 35 46 0 6 8 10 19 10 12
0 20 -9 24 -26z"/>
<path d="M3061 5333 c-6 -7 -23 -13 -36 -13 -14 0 -25 -4 -25 -10 0 -5 -7 -10
-15 -10 -16 0 -23 -5 -73 -50 -44 -39 -115 -156 -117 -190 0 -3 -6 -18 -12
-35 -6 -16 -17 -70 -23 -120 -12 -98 -12 -94 -5 -145 3 -19 8 -61 11 -93 4
-31 10 -60 15 -63 5 -3 9 -15 9 -28 0 -12 7 -31 15 -42 8 -10 15 -25 15 -32 0
-7 11 -28 25 -46 14 -18 25 -38 25 -44 0 -7 4 -12 9 -12 5 0 24 -15 43 -32 32
-31 43 -38 108 -66 68 -30 222 -31 295 -3 59 23 81 37 131 86 42 41 98 126 96
145 0 3 5 14 10 24 54 100 58 377 7 501 -36 88 -58 125 -102 173 -46 48 -100
87 -110 80 -2 -2 -11 3 -20 11 -10 7 -17 10 -17 6 0 -4 -7 -2 -15 5 -22 18
-228 20 -244 3z m183 -110 c4 -5 12 -9 17 -9 5 -1 12 -2 17 -3 4 0 24 -16 44
-34 40 -35 39 -46 -6 -93 -12 -12 -39 -45 -61 -73 -22 -28 -43 -51 -47 -51 -5
0 -8 -6 -8 -12 0 -7 -21 -35 -46 -63 -24 -27 -48 -55 -52 -60 -8 -12 -66 -82
-91 -110 -10 -11 -28 -35 -41 -52 -13 -18 -29 -33 -35 -33 -31 0 -54 207 -33
290 5 19 14 53 19 75 6 21 15 45 21 52 6 7 7 13 4 13 -9 0 28 55 63 94 38 42
116 76 177 76 28 0 54 -3 58 -7z m215 -265 c6 -109 2 -297 -8 -313 -3 -5 -13
-31 -21 -57 -21 -59 -76 -132 -117 -155 -18 -10 -33 -22 -33 -27 0 -5 -3 -7
-6 -3 -3 3 -16 2 -29 -3 -14 -5 -26 -5 -34 3 -8 8 -11 8 -11 0 0 -15 -102 -6
-112 10 -4 6 -8 8 -8 4 0 -4 -16 4 -35 19 -40 30 -44 55 -15 84 11 11 20 22
20 25 0 5 37 48 82 96 14 16 24 29 22 29 -3 0 5 10 16 23 12 12 31 35 43 51
12 15 32 39 45 52 13 13 20 24 16 24 -5 0 -1 6 7 13 9 6 44 47 79 89 51 62 67
75 80 68 10 -5 18 -20 19 -32z"/>
<path d="M5038 5342 c-7 -2 -20 -6 -28 -9 -8 -3 -24 -8 -34 -10 -11 -2 -27
-10 -36 -18 -9 -8 -21 -15 -27 -15 -16 0 -73 -61 -94 -101 -16 -33 -32 -153
-21 -164 3 -2 6 -20 7 -38 2 -36 34 -90 72 -120 29 -23 29 -43 2 -58 -20 -10
-52 -41 -86 -83 -7 -8 -13 -22 -13 -30 0 -8 -5 -18 -10 -21 -6 -4 -8 -10 -5
-15 3 -5 1 -11 -4 -14 -5 -3 -9 -34 -9 -68 0 -124 78 -227 208 -275 88 -33
284 -32 350 2 16 8 31 14 32 13 2 -2 25 11 51 27 35 22 58 47 83 92 34 59 36
68 35 153 -1 69 -5 99 -21 129 -20 41 -94 111 -117 111 -19 0 -16 14 8 30 30
21 79 95 79 119 0 12 4 21 8 21 7 0 11 19 14 65 4 58 -44 161 -96 204 -31 27
-96 64 -96 56 0 -3 -10 0 -22 7 -21 11 -197 19 -230 10z m190 -128 c12 -8 22
-12 22 -9 0 13 54 -37 68 -63 25 -46 23 -121 -5 -170 -36 -60 -91 -104 -115
-91 -11 6 -36 12 -56 13 -20 2 -50 8 -65 15 -16 6 -35 11 -43 11 -8 0 -14 5
-14 10 0 6 -6 10 -14 10 -22 0 -64 57 -72 96 -13 71 26 138 101 177 39 20 162
20 193 1z m-124 -429 c17 -1 70 -14 118 -29 69 -22 95 -36 118 -63 17 -19 28
-38 25 -43 -3 -5 -1 -11 5 -15 16 -10 11 -77 -10 -123 -20 -43 -55 -81 -76
-82 -6 0 -17 -7 -24 -16 -8 -8 -25 -14 -39 -12 -14 1 -31 0 -36 -3 -6 -3 -37
-5 -70 -4 -85 1 -161 39 -200 99 -25 37 -26 129 -3 176 33 66 122 138 152 122
5 -3 23 -6 40 -7z"/>
<path d="M7089 5332 c-10 -7 -23 -11 -28 -8 -7 5 -89 -69 -117 -106 -11 -14
-20 -61 -33 -168 l-6 -55 -88 -2 c-48 0 -93 -6 -100 -11 -13 -11 -14 -88 -2
-100 3 -4 45 -7 93 -8 48 -1 90 -2 94 -3 4 0 9 -130 10 -288 l3 -288 71 -3 71
-3 -1 287 c-1 245 1 287 14 293 8 4 71 7 140 6 69 -1 132 2 141 6 10 5 15 21
14 53 0 24 -3 48 -7 51 -3 3 -69 6 -146 6 -92 -1 -143 3 -148 10 -15 26 -11
124 8 151 10 14 18 30 18 35 0 5 15 17 34 27 25 13 48 17 94 13 66 -5 99 -24
140 -82 l24 -34 54 27 c58 28 63 38 37 80 -53 86 -136 124 -271 126 -65 2 -99
-2 -113 -12z"/>
<path d="M4085 5319 c-8 -8 -15 -19 -15 -23 0 -41 -117 -117 -180 -117 -48 0
-55 -7 -55 -51 0 -24 4 -49 9 -56 9 -14 75 -11 116 5 14 6 28 9 31 7 4 -2 12
3 19 11 7 8 23 15 36 15 l23 0 -1 -339 c0 -187 -5 -345 -9 -353 -6 -10 -40
-13 -136 -13 l-128 0 -5 -52 c-4 -38 -2 -54 8 -58 17 -6 680 -7 690 -1 10 6 9
92 -1 103 -5 4 -64 8 -132 8 -68 0 -128 4 -132 9 -4 4 -8 209 -8 456 -1 247
-4 452 -8 456 -15 15 -108 10 -122 -7z"/>
<path d="M5843 5300 c-4 -19 -6 -38 -5 -42 1 -4 -3 -31 -8 -60 -6 -29 -13 -93
-15 -143 -2 -49 -7 -101 -10 -115 -4 -14 -8 -46 -10 -71 -2 -25 -5 -50 -6 -55
-1 -5 -1 -21 0 -36 1 -27 2 -28 61 -28 49 0 63 4 78 21 54 66 183 108 264 88
61 -16 136 -73 162 -124 26 -48 27 -142 3 -195 -33 -73 -134 -144 -201 -141
-23 1 -54 1 -69 1 -15 0 -38 5 -50 12 -12 7 -27 13 -34 14 -18 3 -74 43 -103
74 -53 55 -55 56 -110 19 -27 -19 -50 -39 -50 -45 0 -19 119 -124 164 -143 82
-36 98 -41 149 -48 99 -13 198 -2 265 30 68 32 164 132 170 177 0 3 6 19 12
35 27 69 32 155 13 195 -7 14 -13 30 -13 37 0 24 -40 89 -77 125 -38 36 -149
96 -159 85 -3 -3 -22 0 -42 7 -59 20 -183 8 -244 -25 -42 -23 -51 -16 -43 38
3 21 7 76 9 122 2 46 9 88 15 94 8 8 84 11 236 9 157 -1 226 1 231 9 10 16 13
85 4 99 -6 9 -83 13 -294 14 l-286 1 -7 -35z"/>
<path d="M7855 4989 c-22 -10 -48 -24 -57 -31 -15 -11 -20 -9 -34 10 -13 19
-23 23 -57 20 l-42 -3 0 -345 0 -345 63 -3 c34 -2 62 1 63 5 1 4 2 110 3 234
1 147 5 231 12 240 6 8 14 25 17 39 8 33 52 78 83 86 20 5 32 0 58 -25 18 -17
33 -37 33 -44 1 -7 4 -39 8 -72 4 -33 8 -150 9 -260 l1 -200 68 -3 67 -3 0
217 c0 197 2 222 22 276 23 64 76 119 107 111 35 -9 70 -50 77 -89 4 -21 9
-146 11 -276 2 -131 7 -238 11 -239 41 -6 122 -2 123 6 1 5 2 123 3 260 2 263
-4 308 -47 380 -23 37 -102 75 -157 75 -43 0 -150 -42 -150 -59 0 -6 -9 -15
-21 -21 -17 -10 -25 -7 -50 19 -58 61 -148 77 -224 40z"/>
<path d="M4167 3803 c-4 -3 -62 -7 -129 -9 -68 -1 -208 -5 -313 -8 -178 -6
-234 -8 -490 -21 -270 -13 -498 -28 -640 -41 -33 -3 -82 -8 -110 -10 -27 -2
-68 -6 -90 -8 -45 -4 -145 -16 -190 -22 -16 -2 -50 -7 -75 -10 -59 -7 -96 -13
-147 -25 -24 -5 -46 -8 -50 -7 -5 0 -17 -2 -28 -7 -11 -4 -46 -17 -77 -29 -39
-14 -58 -26 -58 -37 0 -25 89 -62 205 -85 11 -2 29 -6 40 -8 11 -2 63 -10 115
-17 52 -7 100 -16 107 -21 7 -5 14 -5 18 2 3 6 10 8 14 5 9 -5 55 -11 156 -20
39 -4 84 -9 100 -11 17 -3 66 -7 110 -9 44 -3 105 -7 135 -9 30 -3 100 -8 155
-11 55 -3 138 -8 185 -11 47 -3 126 -7 175 -9 50 -2 158 -7 240 -10 788 -33
2207 -37 2990 -10 400 14 794 34 1010 50 39 3 99 8 135 10 36 2 90 7 122 11
31 3 74 7 95 9 21 2 61 6 88 9 28 4 70 9 94 11 62 6 116 14 186 27 33 6 71 12
85 14 56 7 166 48 183 67 17 20 17 21 -15 41 -17 11 -37 21 -42 22 -6 1 -49
11 -96 22 -106 25 -170 36 -281 47 -25 2 -59 7 -75 10 -16 3 -60 8 -99 11 -38
3 -86 7 -105 9 -19 2 -71 7 -115 10 -44 3 -100 8 -125 10 -48 4 -157 12 -304
20 -49 3 -92 8 -97 10 -4 3 -10 1 -14 -5 -4 -6 -11 -7 -17 -4 -11 7 -44 9
-288 19 -338 13 -735 27 -767 25 -7 0 -19 0 -25 1 -97 4 -1800 3 -1803 -1 -5
-8 -48 -5 -62 3 -5 4 -13 4 -16 0z"/>
<path d="M1770 2958 c1 -17 42 -47 72 -52 13 -3 23 -5 23 -6 0 -2 27 -9 60
-15 11 -2 39 -9 62 -15 24 -5 46 -10 50 -9 5 1 10 0 13 -1 26 -10 337 -47 470
-55 30 -2 55 -5 55 -5 0 -1 18 -3 40 -5 22 -1 78 -5 125 -9 228 -17 356 -24
725 -41 203 -9 485 -17 651 -19 94 -2 175 -6 181 -9 6 -4 13 -4 17 0 9 9 56
10 56 1 0 -4 11 -3 24 2 13 5 26 6 29 3 10 -9 92 -9 105 0 7 6 12 6 12 0 0 -7
1197 -10 1265 -3 6 1 22 -1 38 -3 15 -2 27 0 27 5 0 5 7 5 17 0 9 -6 29 -6 45
-2 17 5 28 5 28 -1 0 -6 5 -7 10 -4 6 4 104 8 218 10 228 4 477 13 857 30 157
7 479 27 630 40 218 18 305 27 395 40 14 2 48 6 75 9 85 11 113 15 162 27 27
6 59 13 73 15 60 11 120 35 120 47 0 5 4 6 9 2 13 -8 21 8 12 24 -6 10 -14 10
-28 3 -25 -14 -166 -50 -218 -56 -22 -2 -40 -5 -40 -6 0 -3 -42 -9 -100 -15
-33 -3 -67 -8 -75 -10 -14 -4 -96 -13 -180 -20 -19 -2 -64 -6 -100 -9 -76 -7
-153 -13 -265 -21 -44 -3 -111 -8 -150 -11 -38 -2 -115 -7 -170 -10 -55 -2
-131 -6 -170 -8 -84 -5 -383 -16 -550 -22 -715 -22 -1926 -22 -2640 1 -350 11
-620 22 -620 24 0 1 -49 4 -110 6 -60 2 -141 6 -180 10 -38 3 -106 7 -150 10
-79 5 -127 9 -254 20 -128 11 -167 15 -201 20 -19 3 -57 8 -85 10 -27 3 -62 7
-77 9 -16 2 -47 7 -70 11 -24 4 -56 9 -73 11 -60 10 -200 46 -209 55 -14 13
-36 11 -36 -3z"/>
<path d="M1776 2274 c-4 -9 -5 -17 -4 -18 2 -1 17 -8 33 -17 49 -26 182 -58
310 -74 22 -3 50 -7 62 -9 28 -6 170 -21 283 -31 30 -2 75 -6 100 -9 25 -3 81
-8 125 -11 44 -3 109 -8 145 -11 36 -2 106 -7 155 -9 50 -3 124 -7 165 -10 41
-2 136 -7 210 -9 74 -3 135 -6 135 -6 0 -2 635 -22 663 -21 20 1 29 1 252 -4
259 -5 1181 -5 1515 0 291 5 890 22 890 25 0 1 45 3 100 5 161 6 357 16 545
30 36 2 106 7 155 10 50 4 101 8 114 10 13 2 58 7 100 10 42 3 92 8 111 10 48
6 148 17 190 21 19 1 35 3 35 4 0 2 36 9 85 15 51 7 85 13 85 15 0 1 7 3 15 5
8 2 25 6 38 9 12 3 31 8 41 10 37 9 96 41 96 54 0 17 -4 17 -61 -2 -28 -9 -61
-18 -73 -21 -12 -2 -30 -6 -39 -9 -9 -3 -30 -7 -47 -10 -139 -23 -174 -28
-205 -32 -19 -2 -55 -6 -80 -9 -51 -6 -133 -14 -206 -20 -27 -2 -74 -6 -104
-9 -310 -29 -923 -59 -1396 -70 -61 -2 -116 -6 -122 -10 -7 -4 -12 -4 -12 1 0
4 -11 8 -25 8 -14 0 -25 -2 -25 -5 0 -4 -1571 -5 -1939 -1 -18 0 -36 0 -40 -1
-3 0 -8 1 -11 2 -3 1 -66 3 -140 5 -163 4 -435 13 -585 20 -544 26 -598 30
-613 39 -6 3 -13 2 -17 -4 -4 -6 -11 -8 -16 -5 -9 6 -39 9 -174 20 -38 3 -86
7 -105 9 -19 2 -69 7 -110 11 -93 8 -124 12 -174 19 -21 3 -57 8 -80 11 -35 5
-230 42 -261 49 -13 4 -66 25 -75 31 -5 3 -11 -2 -14 -11z"/>
</g>
</svg>
